<svg width="1363" height="163" viewBox="0 0 1363 163" fill="none" xmlns="http://www.w3.org/2000/svg">
<path d="M0 15C0 6.71573 6.71573 0 15 0H37V163H15C6.71573 163 0 156.284 0 148V15Z" fill="#424242"/>
<rect width="1097" height="163" transform="translate(37)" fill="#F0F0F0"/>
<path d="M103.406 56.5352C103.406 56.2305 103.359 55.957 103.266 55.7148C103.18 55.4648 103.016 55.2383 102.773 55.0352C102.531 54.8242 102.191 54.6172 101.754 54.4141C101.316 54.2109 100.75 54 100.055 53.7812C99.2812 53.5312 98.5469 53.25 97.8516 52.9375C97.1641 52.625 96.5547 52.2617 96.0234 51.8477C95.5 51.4258 95.0859 50.9375 94.7812 50.3828C94.4844 49.8281 94.3359 49.1836 94.3359 48.4492C94.3359 47.7383 94.4922 47.0938 94.8047 46.5156C95.1172 45.9297 95.5547 45.4297 96.1172 45.0156C96.6797 44.5938 97.3438 44.2695 98.1094 44.043C98.8828 43.8164 99.7305 43.7031 100.652 43.7031C101.91 43.7031 103.008 43.9297 103.945 44.3828C104.883 44.8359 105.609 45.457 106.125 46.2461C106.648 47.0352 106.91 47.9375 106.91 48.9531H103.418C103.418 48.4531 103.312 48.0156 103.102 47.6406C102.898 47.2578 102.586 46.957 102.164 46.7383C101.75 46.5195 101.227 46.4102 100.594 46.4102C99.9844 46.4102 99.4766 46.5039 99.0703 46.6914C98.6641 46.8711 98.3594 47.1172 98.1562 47.4297C97.9531 47.7344 97.8516 48.0781 97.8516 48.4609C97.8516 48.75 97.9219 49.0117 98.0625 49.2461C98.2109 49.4805 98.4297 49.6992 98.7188 49.9023C99.0078 50.1055 99.3633 50.2969 99.7852 50.4766C100.207 50.6562 100.695 50.832 101.25 51.0039C102.18 51.2852 102.996 51.6016 103.699 51.9531C104.41 52.3047 105.004 52.6992 105.48 53.1367C105.957 53.5742 106.316 54.0703 106.559 54.625C106.801 55.1797 106.922 55.8086 106.922 56.5117C106.922 57.2539 106.777 57.918 106.488 58.5039C106.199 59.0898 105.781 59.5859 105.234 59.9922C104.688 60.3984 104.035 60.707 103.277 60.918C102.52 61.1289 101.672 61.2344 100.734 61.2344C99.8906 61.2344 99.0586 61.125 98.2383 60.9062C97.418 60.6797 96.6719 60.3398 96 59.8867C95.3359 59.4336 94.8047 58.8555 94.4062 58.1523C94.0078 57.4492 93.8086 56.6172 93.8086 55.6562H97.3359C97.3359 56.1875 97.418 56.6367 97.582 57.0039C97.7461 57.3711 97.9766 57.668 98.2734 57.8945C98.5781 58.1211 98.9375 58.2852 99.3516 58.3867C99.7734 58.4883 100.234 58.5391 100.734 58.5391C101.344 58.5391 101.844 58.4531 102.234 58.2812C102.633 58.1094 102.926 57.8711 103.113 57.5664C103.309 57.2617 103.406 56.918 103.406 56.5352ZM112.664 48.3203V61H109.277V48.3203H112.664ZM109.066 45.0156C109.066 44.5234 109.238 44.1172 109.582 43.7969C109.926 43.4766 110.387 43.3164 110.965 43.3164C111.535 43.3164 111.992 43.4766 112.336 43.7969C112.688 44.1172 112.863 44.5234 112.863 45.0156C112.863 45.5078 112.688 45.9141 112.336 46.2344C111.992 46.5547 111.535 46.7148 110.965 46.7148C110.387 46.7148 109.926 46.5547 109.582 46.2344C109.238 45.9141 109.066 45.5078 109.066 45.0156ZM118.828 50.9453V61H115.441V48.3203H118.617L118.828 50.9453ZM118.359 54.2148H117.422C117.422 53.332 117.527 52.5195 117.738 51.7773C117.957 51.0273 118.273 50.3789 118.688 49.832C119.109 49.2773 119.629 48.8477 120.246 48.543C120.863 48.2383 121.578 48.0859 122.391 48.0859C122.953 48.0859 123.469 48.1719 123.938 48.3438C124.406 48.5078 124.809 48.7695 125.145 49.1289C125.488 49.4805 125.754 49.9414 125.941 50.5117C126.129 51.0742 126.223 51.75 126.223 52.5391V61H122.848V52.9141C122.848 52.3359 122.77 51.8906 122.613 51.5781C122.457 51.2656 122.234 51.0469 121.945 50.9219C121.664 50.7969 121.324 50.7344 120.926 50.7344C120.488 50.7344 120.105 50.8242 119.777 51.0039C119.457 51.1836 119.191 51.4336 118.98 51.7539C118.77 52.0664 118.613 52.4336 118.512 52.8555C118.41 53.2773 118.359 53.7305 118.359 54.2148ZM125.906 53.8281L124.699 53.9805C124.699 53.1523 124.801 52.3828 125.004 51.6719C125.215 50.9609 125.523 50.3359 125.93 49.7969C126.344 49.2578 126.855 48.8398 127.465 48.543C128.074 48.2383 128.777 48.0859 129.574 48.0859C130.184 48.0859 130.738 48.1758 131.238 48.3555C131.738 48.5273 132.164 48.8047 132.516 49.1875C132.875 49.5625 133.148 50.0547 133.336 50.6641C133.531 51.2734 133.629 52.0195 133.629 52.9023V61H130.242V52.9023C130.242 52.3164 130.164 51.8711 130.008 51.5664C129.859 51.2539 129.641 51.0391 129.352 50.9219C129.07 50.7969 128.734 50.7344 128.344 50.7344C127.938 50.7344 127.582 50.8164 127.277 50.9805C126.973 51.1367 126.719 51.3555 126.516 51.6367C126.312 51.918 126.16 52.2461 126.059 52.6211C125.957 52.9883 125.906 53.3906 125.906 53.8281ZM135.703 54.7891V54.543C135.703 53.6133 135.836 52.7578 136.102 51.9766C136.367 51.1875 136.754 50.5039 137.262 49.9258C137.77 49.3477 138.395 48.8984 139.137 48.5781C139.879 48.25 140.73 48.0859 141.691 48.0859C142.652 48.0859 143.508 48.25 144.258 48.5781C145.008 48.8984 145.637 49.3477 146.145 49.9258C146.66 50.5039 147.051 51.1875 147.316 51.9766C147.582 52.7578 147.715 53.6133 147.715 54.543V54.7891C147.715 55.7109 147.582 56.5664 147.316 57.3555C147.051 58.1367 146.66 58.8203 146.145 59.4062C145.637 59.9844 145.012 60.4336 144.27 60.7539C143.527 61.0742 142.676 61.2344 141.715 61.2344C140.754 61.2344 139.898 61.0742 139.148 60.7539C138.406 60.4336 137.777 59.9844 137.262 59.4062C136.754 58.8203 136.367 58.1367 136.102 57.3555C135.836 56.5664 135.703 55.7109 135.703 54.7891ZM139.078 54.543V54.7891C139.078 55.3203 139.125 55.8164 139.219 56.2773C139.312 56.7383 139.461 57.1445 139.664 57.4961C139.875 57.8398 140.148 58.1094 140.484 58.3047C140.82 58.5 141.23 58.5977 141.715 58.5977C142.184 58.5977 142.586 58.5 142.922 58.3047C143.258 58.1094 143.527 57.8398 143.73 57.4961C143.934 57.1445 144.082 56.7383 144.176 56.2773C144.277 55.8164 144.328 55.3203 144.328 54.7891V54.543C144.328 54.0273 144.277 53.543 144.176 53.0898C144.082 52.6289 143.93 52.2227 143.719 51.8711C143.516 51.5117 143.246 51.2305 142.91 51.0273C142.574 50.8242 142.168 50.7227 141.691 50.7227C141.215 50.7227 140.809 50.8242 140.473 51.0273C140.145 51.2305 139.875 51.5117 139.664 51.8711C139.461 52.2227 139.312 52.6289 139.219 53.0898C139.125 53.543 139.078 54.0273 139.078 54.543ZM153.094 51.0273V61H149.719V48.3203H152.883L153.094 51.0273ZM152.602 54.2148H151.688C151.688 53.2773 151.809 52.4336 152.051 51.6836C152.293 50.9258 152.633 50.2812 153.07 49.75C153.508 49.2109 154.027 48.8008 154.629 48.5195C155.238 48.2305 155.918 48.0859 156.668 48.0859C157.262 48.0859 157.805 48.1719 158.297 48.3438C158.789 48.5156 159.211 48.7891 159.562 49.1641C159.922 49.5391 160.195 50.0352 160.383 50.6523C160.578 51.2695 160.676 52.0234 160.676 52.9141V61H157.277V52.9023C157.277 52.3398 157.199 51.9023 157.043 51.5898C156.887 51.2773 156.656 51.0586 156.352 50.9336C156.055 50.8008 155.688 50.7344 155.25 50.7344C154.797 50.7344 154.402 50.8242 154.066 51.0039C153.738 51.1836 153.465 51.4336 153.246 51.7539C153.035 52.0664 152.875 52.4336 152.766 52.8555C152.656 53.2773 152.602 53.7305 152.602 54.2148ZM178.312 56.5352C178.312 56.2305 178.266 55.957 178.172 55.7148C178.086 55.4648 177.922 55.2383 177.68 55.0352C177.438 54.8242 177.098 54.6172 176.66 54.4141C176.223 54.2109 175.656 54 174.961 53.7812C174.188 53.5312 173.453 53.25 172.758 52.9375C172.07 52.625 171.461 52.2617 170.93 51.8477C170.406 51.4258 169.992 50.9375 169.688 50.3828C169.391 49.8281 169.242 49.1836 169.242 48.4492C169.242 47.7383 169.398 47.0938 169.711 46.5156C170.023 45.9297 170.461 45.4297 171.023 45.0156C171.586 44.5938 172.25 44.2695 173.016 44.043C173.789 43.8164 174.637 43.7031 175.559 43.7031C176.816 43.7031 177.914 43.9297 178.852 44.3828C179.789 44.8359 180.516 45.457 181.031 46.2461C181.555 47.0352 181.816 47.9375 181.816 48.9531H178.324C178.324 48.4531 178.219 48.0156 178.008 47.6406C177.805 47.2578 177.492 46.957 177.07 46.7383C176.656 46.5195 176.133 46.4102 175.5 46.4102C174.891 46.4102 174.383 46.5039 173.977 46.6914C173.57 46.8711 173.266 47.1172 173.062 47.4297C172.859 47.7344 172.758 48.0781 172.758 48.4609C172.758 48.75 172.828 49.0117 172.969 49.2461C173.117 49.4805 173.336 49.6992 173.625 49.9023C173.914 50.1055 174.27 50.2969 174.691 50.4766C175.113 50.6562 175.602 50.832 176.156 51.0039C177.086 51.2852 177.902 51.6016 178.605 51.9531C179.316 52.3047 179.91 52.6992 180.387 53.1367C180.863 53.5742 181.223 54.0703 181.465 54.625C181.707 55.1797 181.828 55.8086 181.828 56.5117C181.828 57.2539 181.684 57.918 181.395 58.5039C181.105 59.0898 180.688 59.5859 180.141 59.9922C179.594 60.3984 178.941 60.707 178.184 60.918C177.426 61.1289 176.578 61.2344 175.641 61.2344C174.797 61.2344 173.965 61.125 173.145 60.9062C172.324 60.6797 171.578 60.3398 170.906 59.8867C170.242 59.4336 169.711 58.8555 169.312 58.1523C168.914 57.4492 168.715 56.6172 168.715 55.6562H172.242C172.242 56.1875 172.324 56.6367 172.488 57.0039C172.652 57.3711 172.883 57.668 173.18 57.8945C173.484 58.1211 173.844 58.2852 174.258 58.3867C174.68 58.4883 175.141 58.5391 175.641 58.5391C176.25 58.5391 176.75 58.4531 177.141 58.2812C177.539 58.1094 177.832 57.8711 178.02 57.5664C178.215 57.2617 178.312 56.918 178.312 56.5352ZM190.852 58.1406V52.4922C190.852 52.0859 190.785 51.7383 190.652 51.4492C190.52 51.1523 190.312 50.9219 190.031 50.7578C189.758 50.5938 189.402 50.5117 188.965 50.5117C188.59 50.5117 188.266 50.5781 187.992 50.7109C187.719 50.8359 187.508 51.0195 187.359 51.2617C187.211 51.4961 187.137 51.7734 187.137 52.0938H183.762C183.762 51.5547 183.887 51.043 184.137 50.5586C184.387 50.0742 184.75 49.6484 185.227 49.2812C185.703 48.9062 186.27 48.6133 186.926 48.4023C187.59 48.1914 188.332 48.0859 189.152 48.0859C190.137 48.0859 191.012 48.25 191.777 48.5781C192.543 48.9062 193.145 49.3984 193.582 50.0547C194.027 50.7109 194.25 51.5312 194.25 52.5156V57.9414C194.25 58.6367 194.293 59.207 194.379 59.6523C194.465 60.0898 194.59 60.4727 194.754 60.8008V61H191.344C191.18 60.6562 191.055 60.2266 190.969 59.7109C190.891 59.1875 190.852 58.6641 190.852 58.1406ZM191.297 53.2773L191.32 55.1875H189.434C188.988 55.1875 188.602 55.2383 188.273 55.3398C187.945 55.4414 187.676 55.5859 187.465 55.7734C187.254 55.9531 187.098 56.1641 186.996 56.4062C186.902 56.6484 186.855 56.9141 186.855 57.2031C186.855 57.4922 186.922 57.7539 187.055 57.9883C187.188 58.2148 187.379 58.3945 187.629 58.5273C187.879 58.6523 188.172 58.7148 188.508 58.7148C189.016 58.7148 189.457 58.6133 189.832 58.4102C190.207 58.207 190.496 57.957 190.699 57.6602C190.91 57.3633 191.02 57.082 191.027 56.8164L191.918 58.2461C191.793 58.5664 191.621 58.8984 191.402 59.2422C191.191 59.5859 190.922 59.9102 190.594 60.2148C190.266 60.5117 189.871 60.7578 189.41 60.9531C188.949 61.1406 188.402 61.2344 187.77 61.2344C186.965 61.2344 186.234 61.0742 185.578 60.7539C184.93 60.4258 184.414 59.9766 184.031 59.4062C183.656 58.8281 183.469 58.1719 183.469 57.4375C183.469 56.7734 183.594 56.1836 183.844 55.668C184.094 55.1523 184.461 54.7188 184.945 54.3672C185.438 54.0078 186.051 53.7383 186.785 53.5586C187.52 53.3711 188.371 53.2773 189.34 53.2773H191.297ZM200.426 59.5703L203.789 48.3203H207.41L202.312 62.9102C202.203 63.2305 202.055 63.5742 201.867 63.9414C201.688 64.3086 201.441 64.6562 201.129 64.9844C200.824 65.3203 200.438 65.5938 199.969 65.8047C199.508 66.0156 198.941 66.1211 198.27 66.1211C197.949 66.1211 197.688 66.1016 197.484 66.0625C197.281 66.0234 197.039 65.9688 196.758 65.8984V63.4258C196.844 63.4258 196.934 63.4258 197.027 63.4258C197.121 63.4336 197.211 63.4375 197.297 63.4375C197.742 63.4375 198.105 63.3867 198.387 63.2852C198.668 63.1836 198.895 63.0273 199.066 62.8164C199.238 62.6133 199.375 62.3477 199.477 62.0195L200.426 59.5703ZM199.02 48.3203L201.773 57.5078L202.254 61.082L199.957 61.3281L195.398 48.3203H199.02ZM215.613 57.4961C215.613 57.2539 215.543 57.0352 215.402 56.8398C215.262 56.6445 215 56.4648 214.617 56.3008C214.242 56.1289 213.699 55.9727 212.988 55.832C212.348 55.6914 211.75 55.5156 211.195 55.3047C210.648 55.0859 210.172 54.8242 209.766 54.5195C209.367 54.2148 209.055 53.8555 208.828 53.4414C208.602 53.0195 208.488 52.5391 208.488 52C208.488 51.4688 208.602 50.9688 208.828 50.5C209.062 50.0312 209.395 49.6172 209.824 49.2578C210.262 48.8906 210.793 48.6055 211.418 48.4023C212.051 48.1914 212.762 48.0859 213.551 48.0859C214.652 48.0859 215.598 48.2617 216.387 48.6133C217.184 48.9648 217.793 49.4492 218.215 50.0664C218.645 50.6758 218.859 51.3711 218.859 52.1523H215.484C215.484 51.8242 215.414 51.5312 215.273 51.2734C215.141 51.0078 214.93 50.8008 214.641 50.6523C214.359 50.4961 213.992 50.418 213.539 50.418C213.164 50.418 212.84 50.4844 212.566 50.6172C212.293 50.7422 212.082 50.9141 211.934 51.1328C211.793 51.3438 211.723 51.5781 211.723 51.8359C211.723 52.0312 211.762 52.207 211.84 52.3633C211.926 52.5117 212.062 52.6484 212.25 52.7734C212.438 52.8984 212.68 53.0156 212.977 53.125C213.281 53.2266 213.656 53.3203 214.102 53.4062C215.016 53.5938 215.832 53.8398 216.551 54.1445C217.27 54.4414 217.84 54.8477 218.262 55.3633C218.684 55.8711 218.895 56.5391 218.895 57.3672C218.895 57.9297 218.77 58.4453 218.52 58.9141C218.27 59.3828 217.91 59.793 217.441 60.1445C216.973 60.4883 216.41 60.7578 215.754 60.9531C215.105 61.1406 214.375 61.2344 213.562 61.2344C212.383 61.2344 211.383 61.0234 210.562 60.6016C209.75 60.1797 209.133 59.6445 208.711 58.9961C208.297 58.3398 208.09 57.668 208.09 56.9805H211.289C211.305 57.4414 211.422 57.8125 211.641 58.0938C211.867 58.375 212.152 58.5781 212.496 58.7031C212.848 58.8281 213.227 58.8906 213.633 58.8906C214.07 58.8906 214.434 58.832 214.723 58.7148C215.012 58.5898 215.23 58.4258 215.379 58.2227C215.535 58.0117 215.613 57.7695 215.613 57.4961Z" fill="#888888"/>
<path d="M109.219 107.422H100.734V101.07H109.219C110.375 101.07 111.312 100.875 112.031 100.484C112.75 100.094 113.273 99.5547 113.602 98.8672C113.945 98.1641 114.117 97.375 114.117 96.5C114.117 95.5625 113.945 94.6953 113.602 93.8984C113.273 93.1016 112.75 92.4609 112.031 91.9766C111.312 91.4766 110.375 91.2266 109.219 91.2266H103.828V119H95.6016V84.875H109.219C111.953 84.875 114.305 85.375 116.273 86.375C118.258 87.375 119.781 88.75 120.844 90.5C121.906 92.2344 122.438 94.2188 122.438 96.4531C122.438 98.6562 121.906 100.578 120.844 102.219C119.781 103.859 118.258 105.141 116.273 106.062C114.305 106.969 111.953 107.422 109.219 107.422ZM134.461 99.9219V119H126.562V93.6406H133.945L134.461 99.9219ZM141.961 93.4531L141.82 100.789C141.508 100.758 141.086 100.719 140.555 100.672C140.023 100.625 139.578 100.602 139.219 100.602C138.297 100.602 137.5 100.711 136.828 100.93C136.172 101.133 135.625 101.445 135.188 101.867C134.766 102.273 134.453 102.789 134.25 103.414C134.062 104.039 133.977 104.766 133.992 105.594L132.562 104.656C132.562 102.953 132.727 101.406 133.055 100.016C133.398 98.6094 133.883 97.3984 134.508 96.3828C135.133 95.3516 135.891 94.5625 136.781 94.0156C137.672 93.4531 138.672 93.1719 139.781 93.1719C140.172 93.1719 140.555 93.1953 140.93 93.2422C141.32 93.2891 141.664 93.3594 141.961 93.4531ZM142.852 106.578V106.086C142.852 104.227 143.117 102.516 143.648 100.953C144.18 99.375 144.961 98.0078 145.992 96.8516C147.023 95.6953 148.297 94.7969 149.812 94.1562C151.328 93.5 153.078 93.1719 155.062 93.1719C157.062 93.1719 158.82 93.5 160.336 94.1562C161.867 94.7969 163.148 95.6953 164.18 96.8516C165.211 98.0078 165.992 99.375 166.523 100.953C167.055 102.516 167.32 104.227 167.32 106.086V106.578C167.32 108.422 167.055 110.133 166.523 111.711C165.992 113.273 165.211 114.641 164.18 115.812C163.148 116.969 161.875 117.867 160.359 118.508C158.844 119.148 157.094 119.469 155.109 119.469C153.125 119.469 151.367 119.148 149.836 118.508C148.305 117.867 147.023 116.969 145.992 115.812C144.961 114.641 144.18 113.273 143.648 111.711C143.117 110.133 142.852 108.422 142.852 106.578ZM150.75 106.086V106.578C150.75 107.531 150.82 108.422 150.961 109.25C151.102 110.078 151.336 110.805 151.664 111.43C151.992 112.039 152.438 112.516 153 112.859C153.562 113.203 154.266 113.375 155.109 113.375C155.938 113.375 156.625 113.203 157.172 112.859C157.734 112.516 158.18 112.039 158.508 111.43C158.836 110.805 159.07 110.078 159.211 109.25C159.352 108.422 159.422 107.531 159.422 106.578V106.086C159.422 105.164 159.352 104.297 159.211 103.484C159.07 102.656 158.836 101.93 158.508 101.305C158.18 100.664 157.734 100.164 157.172 99.8047C156.609 99.4453 155.906 99.2656 155.062 99.2656C154.234 99.2656 153.539 99.4453 152.977 99.8047C152.43 100.164 151.992 100.664 151.664 101.305C151.336 101.93 151.102 102.656 150.961 103.484C150.82 104.297 150.75 105.164 150.75 106.086ZM171.422 93.6406H179.344V119.82C179.344 121.852 178.953 123.562 178.172 124.953C177.391 126.359 176.273 127.422 174.82 128.141C173.367 128.875 171.633 129.242 169.617 129.242C168.945 129.242 168.328 129.211 167.766 129.148C167.188 129.102 166.555 129 165.867 128.844V122.867C166.273 122.93 166.648 122.977 166.992 123.008C167.336 123.055 167.711 123.078 168.117 123.078C168.836 123.078 169.438 122.961 169.922 122.727C170.406 122.492 170.773 122.133 171.023 121.648C171.289 121.164 171.422 120.555 171.422 119.82V93.6406ZM170.836 87.1016C170.836 85.9766 171.242 85.0547 172.055 84.3359C172.867 83.6172 173.922 83.2578 175.219 83.2578C176.516 83.2578 177.57 83.6172 178.383 84.3359C179.195 85.0547 179.602 85.9766 179.602 87.1016C179.602 88.2266 179.195 89.1484 178.383 89.8672C177.57 90.5859 176.516 90.9453 175.219 90.9453C173.922 90.9453 172.867 90.5859 172.055 89.8672C171.242 89.1484 170.836 88.2266 170.836 87.1016ZM196.102 119.469C194.039 119.469 192.195 119.148 190.57 118.508C188.945 117.852 187.57 116.953 186.445 115.812C185.336 114.672 184.484 113.359 183.891 111.875C183.312 110.391 183.023 108.82 183.023 107.164V106.273C183.023 104.414 183.281 102.695 183.797 101.117C184.312 99.5234 185.078 98.1328 186.094 96.9453C187.109 95.7578 188.383 94.8359 189.914 94.1797C191.445 93.5078 193.227 93.1719 195.258 93.1719C197.055 93.1719 198.664 93.4609 200.086 94.0391C201.508 94.6172 202.711 95.4453 203.695 96.5234C204.695 97.6016 205.453 98.9062 205.969 100.438C206.5 101.969 206.766 103.688 206.766 105.594V108.805H186.047V103.859H199.055V103.25C199.07 102.406 198.922 101.688 198.609 101.094C198.312 100.5 197.875 100.047 197.297 99.7344C196.719 99.4219 196.016 99.2656 195.188 99.2656C194.328 99.2656 193.617 99.4531 193.055 99.8281C192.508 100.203 192.078 100.719 191.766 101.375C191.469 102.016 191.258 102.758 191.133 103.602C191.008 104.445 190.945 105.336 190.945 106.273V107.164C190.945 108.102 191.07 108.953 191.32 109.719C191.586 110.484 191.961 111.141 192.445 111.688C192.945 112.219 193.539 112.633 194.227 112.93C194.93 113.227 195.727 113.375 196.617 113.375C197.695 113.375 198.758 113.172 199.805 112.766C200.852 112.359 201.75 111.688 202.5 110.75L206.086 115.016C205.57 115.75 204.836 116.461 203.883 117.148C202.945 117.836 201.82 118.398 200.508 118.836C199.195 119.258 197.727 119.469 196.102 119.469ZM220.688 113.375C221.422 113.375 222.047 113.242 222.562 112.977C223.094 112.695 223.492 112.305 223.758 111.805C224.039 111.289 224.172 110.672 224.156 109.953H231.586C231.602 111.859 231.133 113.531 230.18 114.969C229.242 116.391 227.961 117.5 226.336 118.297C224.727 119.078 222.906 119.469 220.875 119.469C218.891 119.469 217.156 119.148 215.672 118.508C214.188 117.852 212.945 116.945 211.945 115.789C210.961 114.617 210.219 113.25 209.719 111.688C209.234 110.125 208.992 108.43 208.992 106.602V106.062C208.992 104.234 209.234 102.539 209.719 100.977C210.219 99.3984 210.961 98.0312 211.945 96.875C212.945 95.7031 214.18 94.7969 215.648 94.1562C217.133 93.5 218.859 93.1719 220.828 93.1719C222.938 93.1719 224.797 93.5703 226.406 94.3672C228.031 95.1641 229.305 96.3203 230.227 97.8359C231.148 99.3516 231.602 101.188 231.586 103.344H224.156C224.172 102.578 224.055 101.891 223.805 101.281C223.555 100.672 223.164 100.188 222.633 99.8281C222.117 99.4531 221.453 99.2656 220.641 99.2656C219.828 99.2656 219.172 99.4453 218.672 99.8047C218.172 100.164 217.789 100.664 217.523 101.305C217.273 101.93 217.102 102.648 217.008 103.461C216.93 104.273 216.891 105.141 216.891 106.062V106.602C216.891 107.539 216.93 108.422 217.008 109.25C217.102 110.062 217.281 110.781 217.547 111.406C217.812 112.016 218.195 112.5 218.695 112.859C219.195 113.203 219.859 113.375 220.688 113.375ZM248.32 93.6406V99.125H233.039V93.6406H248.32ZM236.25 87.3359H244.148V110.727C244.148 111.398 244.227 111.922 244.383 112.297C244.539 112.656 244.805 112.914 245.18 113.07C245.57 113.211 246.086 113.281 246.727 113.281C247.18 113.281 247.555 113.273 247.852 113.258C248.148 113.227 248.43 113.188 248.695 113.141V118.789C248.023 119.008 247.32 119.172 246.586 119.281C245.852 119.406 245.07 119.469 244.242 119.469C242.555 119.469 241.109 119.203 239.906 118.672C238.719 118.141 237.812 117.305 237.188 116.164C236.562 115.023 236.25 113.539 236.25 111.711V87.3359ZM274.875 119H267.305L267.352 112.672H274.875C276.438 112.672 277.758 112.297 278.836 111.547C279.93 110.797 280.758 109.68 281.32 108.195C281.898 106.695 282.188 104.852 282.188 102.664V101.188C282.188 99.5469 282.023 98.1094 281.695 96.875C281.383 95.625 280.914 94.5859 280.289 93.7578C279.664 92.9141 278.883 92.2812 277.945 91.8594C277.023 91.4375 275.961 91.2266 274.758 91.2266H267.164V84.875H274.758C277.07 84.875 279.188 85.2734 281.109 86.0703C283.047 86.8516 284.719 87.9766 286.125 89.4453C287.547 90.8984 288.641 92.625 289.406 94.625C290.188 96.6094 290.578 98.8125 290.578 101.234V102.664C290.578 105.07 290.188 107.273 289.406 109.273C288.641 111.273 287.555 113 286.148 114.453C284.742 115.906 283.078 117.031 281.156 117.828C279.25 118.609 277.156 119 274.875 119ZM272.016 84.875V119H263.789V84.875H272.016ZM306.773 119.469C304.711 119.469 302.867 119.148 301.242 118.508C299.617 117.852 298.242 116.953 297.117 115.812C296.008 114.672 295.156 113.359 294.562 111.875C293.984 110.391 293.695 108.82 293.695 107.164V106.273C293.695 104.414 293.953 102.695 294.469 101.117C294.984 99.5234 295.75 98.1328 296.766 96.9453C297.781 95.7578 299.055 94.8359 300.586 94.1797C302.117 93.5078 303.898 93.1719 305.93 93.1719C307.727 93.1719 309.336 93.4609 310.758 94.0391C312.18 94.6172 313.383 95.4453 314.367 96.5234C315.367 97.6016 316.125 98.9062 316.641 100.438C317.172 101.969 317.438 103.688 317.438 105.594V108.805H296.719V103.859H309.727V103.25C309.742 102.406 309.594 101.688 309.281 101.094C308.984 100.5 308.547 100.047 307.969 99.7344C307.391 99.4219 306.688 99.2656 305.859 99.2656C305 99.2656 304.289 99.4531 303.727 99.8281C303.18 100.203 302.75 100.719 302.438 101.375C302.141 102.016 301.93 102.758 301.805 103.602C301.68 104.445 301.617 105.336 301.617 106.273V107.164C301.617 108.102 301.742 108.953 301.992 109.719C302.258 110.484 302.633 111.141 303.117 111.688C303.617 112.219 304.211 112.633 304.898 112.93C305.602 113.227 306.398 113.375 307.289 113.375C308.367 113.375 309.43 113.172 310.477 112.766C311.523 112.359 312.422 111.688 313.172 110.75L316.758 115.016C316.242 115.75 315.508 116.461 314.555 117.148C313.617 117.836 312.492 118.398 311.18 118.836C309.867 119.258 308.398 119.469 306.773 119.469ZM333.938 111.875C333.938 111.438 333.789 111.062 333.492 110.75C333.211 110.422 332.711 110.125 331.992 109.859C331.273 109.578 330.266 109.297 328.969 109.016C327.734 108.75 326.57 108.398 325.477 107.961C324.398 107.523 323.453 106.992 322.641 106.367C321.828 105.742 321.188 105 320.719 104.141C320.266 103.281 320.039 102.297 320.039 101.188C320.039 100.109 320.266 99.0938 320.719 98.1406C321.188 97.1719 321.867 96.3203 322.758 95.5859C323.664 94.8359 324.766 94.25 326.062 93.8281C327.359 93.3906 328.836 93.1719 330.492 93.1719C332.773 93.1719 334.742 93.5234 336.398 94.2266C338.055 94.9141 339.328 95.8828 340.219 97.1328C341.125 98.3672 341.578 99.7969 341.578 101.422H333.68C333.68 100.781 333.57 100.234 333.352 99.7812C333.148 99.3281 332.812 98.9844 332.344 98.75C331.875 98.5 331.25 98.375 330.469 98.375C329.922 98.375 329.422 98.4766 328.969 98.6797C328.531 98.8828 328.18 99.1641 327.914 99.5234C327.648 99.8828 327.516 100.305 327.516 100.789C327.516 101.133 327.594 101.445 327.75 101.727C327.922 101.992 328.18 102.242 328.523 102.477C328.867 102.695 329.305 102.898 329.836 103.086C330.367 103.258 331.008 103.414 331.758 103.555C333.461 103.867 335.055 104.312 336.539 104.891C338.023 105.469 339.227 106.289 340.148 107.352C341.086 108.414 341.555 109.844 341.555 111.641C341.555 112.766 341.297 113.805 340.781 114.758C340.266 115.695 339.523 116.523 338.555 117.242C337.586 117.945 336.422 118.492 335.062 118.883C333.703 119.273 332.172 119.469 330.469 119.469C328.047 119.469 326 119.039 324.328 118.18C322.656 117.305 321.391 116.211 320.531 114.898C319.688 113.57 319.266 112.227 319.266 110.867H326.625C326.656 111.648 326.844 112.289 327.188 112.789C327.547 113.289 328.023 113.656 328.617 113.891C329.211 114.125 329.898 114.242 330.68 114.242C331.398 114.242 331.992 114.141 332.461 113.938C332.945 113.734 333.312 113.461 333.562 113.117C333.812 112.758 333.938 112.344 333.938 111.875ZM355.969 113.375C356.703 113.375 357.328 113.242 357.844 112.977C358.375 112.695 358.773 112.305 359.039 111.805C359.32 111.289 359.453 110.672 359.438 109.953H366.867C366.883 111.859 366.414 113.531 365.461 114.969C364.523 116.391 363.242 117.5 361.617 118.297C360.008 119.078 358.188 119.469 356.156 119.469C354.172 119.469 352.438 119.148 350.953 118.508C349.469 117.852 348.227 116.945 347.227 115.789C346.242 114.617 345.5 113.25 345 111.688C344.516 110.125 344.273 108.43 344.273 106.602V106.062C344.273 104.234 344.516 102.539 345 100.977C345.5 99.3984 346.242 98.0312 347.227 96.875C348.227 95.7031 349.461 94.7969 350.93 94.1562C352.414 93.5 354.141 93.1719 356.109 93.1719C358.219 93.1719 360.078 93.5703 361.688 94.3672C363.312 95.1641 364.586 96.3203 365.508 97.8359C366.43 99.3516 366.883 101.188 366.867 103.344H359.438C359.453 102.578 359.336 101.891 359.086 101.281C358.836 100.672 358.445 100.188 357.914 99.8281C357.398 99.4531 356.734 99.2656 355.922 99.2656C355.109 99.2656 354.453 99.4453 353.953 99.8047C353.453 100.164 353.07 100.664 352.805 101.305C352.555 101.93 352.383 102.648 352.289 103.461C352.211 104.273 352.172 105.141 352.172 106.062V106.602C352.172 107.539 352.211 108.422 352.289 109.25C352.383 110.062 352.562 110.781 352.828 111.406C353.094 112.016 353.477 112.5 353.977 112.859C354.477 113.203 355.141 113.375 355.969 113.375ZM378.211 99.9219V119H370.312V93.6406H377.695L378.211 99.9219ZM385.711 93.4531L385.57 100.789C385.258 100.758 384.836 100.719 384.305 100.672C383.773 100.625 383.328 100.602 382.969 100.602C382.047 100.602 381.25 100.711 380.578 100.93C379.922 101.133 379.375 101.445 378.938 101.867C378.516 102.273 378.203 102.789 378 103.414C377.812 104.039 377.727 104.766 377.742 105.594L376.312 104.656C376.312 102.953 376.477 101.406 376.805 100.016C377.148 98.6094 377.633 97.3984 378.258 96.3828C378.883 95.3516 379.641 94.5625 380.531 94.0156C381.422 93.4531 382.422 93.1719 383.531 93.1719C383.922 93.1719 384.305 93.1953 384.68 93.2422C385.07 93.2891 385.414 93.3594 385.711 93.4531ZM396.773 93.6406V119H388.852V93.6406H396.773ZM388.383 87.1016C388.383 85.9766 388.789 85.0547 389.602 84.3359C390.414 83.6172 391.469 83.2578 392.766 83.2578C394.062 83.2578 395.117 83.6172 395.93 84.3359C396.742 85.0547 397.148 85.9766 397.148 87.1016C397.148 88.2266 396.742 89.1484 395.93 89.8672C395.117 90.5859 394.062 90.9453 392.766 90.9453C391.469 90.9453 390.414 90.5859 389.602 89.8672C388.789 89.1484 388.383 88.2266 388.383 87.1016ZM409.617 98.5156V128.75H401.719V93.6406H409.078L409.617 98.5156ZM425.18 106.016V106.508C425.18 108.352 424.969 110.062 424.547 111.641C424.125 113.219 423.5 114.594 422.672 115.766C421.844 116.938 420.812 117.852 419.578 118.508C418.359 119.148 416.945 119.469 415.336 119.469C413.82 119.469 412.516 119.133 411.422 118.461C410.328 117.789 409.414 116.859 408.68 115.672C407.945 114.484 407.352 113.125 406.898 111.594C406.445 110.062 406.086 108.445 405.82 106.742V106.109C406.086 104.281 406.445 102.586 406.898 101.023C407.352 99.4453 407.945 98.0703 408.68 96.8984C409.414 95.7266 410.32 94.8125 411.398 94.1562C412.492 93.5 413.797 93.1719 415.312 93.1719C416.922 93.1719 418.336 93.4766 419.555 94.0859C420.789 94.6953 421.82 95.5703 422.648 96.7109C423.492 97.8359 424.125 99.1875 424.547 100.766C424.969 102.344 425.18 104.094 425.18 106.016ZM417.281 106.508V106.016C417.281 105.031 417.211 104.133 417.07 103.32C416.93 102.492 416.703 101.773 416.391 101.164C416.094 100.555 415.695 100.086 415.195 99.7578C414.695 99.4297 414.078 99.2656 413.344 99.2656C412.5 99.2656 411.789 99.3984 411.211 99.6641C410.648 99.9141 410.195 100.305 409.852 100.836C409.523 101.352 409.289 102 409.148 102.781C409.023 103.547 408.969 104.445 408.984 105.477V107.398C408.953 108.586 409.07 109.633 409.336 110.539C409.602 111.43 410.062 112.125 410.719 112.625C411.375 113.125 412.266 113.375 413.391 113.375C414.141 113.375 414.766 113.203 415.266 112.859C415.766 112.5 416.164 112.008 416.461 111.383C416.758 110.742 416.969 110.008 417.094 109.18C417.219 108.352 417.281 107.461 417.281 106.508ZM442.055 93.6406V99.125H426.773V93.6406H442.055ZM429.984 87.3359H437.883V110.727C437.883 111.398 437.961 111.922 438.117 112.297C438.273 112.656 438.539 112.914 438.914 113.07C439.305 113.211 439.82 113.281 440.461 113.281C440.914 113.281 441.289 113.273 441.586 113.258C441.883 113.227 442.164 113.188 442.43 113.141V118.789C441.758 119.008 441.055 119.172 440.32 119.281C439.586 119.406 438.805 119.469 437.977 119.469C436.289 119.469 434.844 119.203 433.641 118.672C432.453 118.141 431.547 117.305 430.922 116.164C430.297 115.023 429.984 113.539 429.984 111.711V87.3359ZM453.539 93.6406V119H445.617V93.6406H453.539ZM445.148 87.1016C445.148 85.9766 445.555 85.0547 446.367 84.3359C447.18 83.6172 448.234 83.2578 449.531 83.2578C450.828 83.2578 451.883 83.6172 452.695 84.3359C453.508 85.0547 453.914 85.9766 453.914 87.1016C453.914 88.2266 453.508 89.1484 452.695 89.8672C451.883 90.5859 450.828 90.9453 449.531 90.9453C448.234 90.9453 447.18 90.5859 446.367 89.8672C445.555 89.1484 445.148 88.2266 445.148 87.1016ZM457.43 106.578V106.086C457.43 104.227 457.695 102.516 458.227 100.953C458.758 99.375 459.539 98.0078 460.57 96.8516C461.602 95.6953 462.875 94.7969 464.391 94.1562C465.906 93.5 467.656 93.1719 469.641 93.1719C471.641 93.1719 473.398 93.5 474.914 94.1562C476.445 94.7969 477.727 95.6953 478.758 96.8516C479.789 98.0078 480.57 99.375 481.102 100.953C481.633 102.516 481.898 104.227 481.898 106.086V106.578C481.898 108.422 481.633 110.133 481.102 111.711C480.57 113.273 479.789 114.641 478.758 115.812C477.727 116.969 476.453 117.867 474.938 118.508C473.422 119.148 471.672 119.469 469.688 119.469C467.703 119.469 465.945 119.148 464.414 118.508C462.883 117.867 461.602 116.969 460.57 115.812C459.539 114.641 458.758 113.273 458.227 111.711C457.695 110.133 457.43 108.422 457.43 106.578ZM465.328 106.086V106.578C465.328 107.531 465.398 108.422 465.539 109.25C465.68 110.078 465.914 110.805 466.242 111.43C466.57 112.039 467.016 112.516 467.578 112.859C468.141 113.203 468.844 113.375 469.688 113.375C470.516 113.375 471.203 113.203 471.75 112.859C472.312 112.516 472.758 112.039 473.086 111.43C473.414 110.805 473.648 110.078 473.789 109.25C473.93 108.422 474 107.531 474 106.578V106.086C474 105.164 473.93 104.297 473.789 103.484C473.648 102.656 473.414 101.93 473.086 101.305C472.758 100.664 472.312 100.164 471.75 99.8047C471.188 99.4453 470.484 99.2656 469.641 99.2656C468.812 99.2656 468.117 99.4453 467.555 99.8047C467.008 100.164 466.57 100.664 466.242 101.305C465.914 101.93 465.68 102.656 465.539 103.484C465.398 104.297 465.328 105.164 465.328 106.086ZM493.172 99.0547V119H485.273V93.6406H492.68L493.172 99.0547ZM492.234 105.453L490.383 105.5C490.383 103.562 490.617 101.836 491.086 100.32C491.555 98.7891 492.219 97.4922 493.078 96.4297C493.938 95.3672 494.961 94.5625 496.148 94.0156C497.352 93.4531 498.688 93.1719 500.156 93.1719C501.328 93.1719 502.398 93.3438 503.367 93.6875C504.352 94.0312 505.195 94.5859 505.898 95.3516C506.617 96.1172 507.164 97.1328 507.539 98.3984C507.93 99.6484 508.125 101.195 508.125 103.039V119H500.18V103.016C500.18 102 500.039 101.227 499.758 100.695C499.477 100.148 499.07 99.7734 498.539 99.5703C498.008 99.3672 497.359 99.2656 496.594 99.2656C495.781 99.2656 495.094 99.4219 494.531 99.7344C493.969 100.047 493.516 100.484 493.172 101.047C492.844 101.594 492.602 102.242 492.445 102.992C492.305 103.742 492.234 104.562 492.234 105.453Z" fill="black"/>
<path d="M1134 0H1348C1356.28 0 1363 6.71573 1363 15V148C1363 156.284 1356.28 163 1348 163H1134V0Z" fill="#FFC000"/>
<path d="M1234.26 103.786H1262.74V109.357H1234.26V103.786ZM1239.96 114.929H1257.04V120.5H1239.96V114.929ZM1248.5 42.5C1240.95 42.5 1233.71 45.4349 1228.37 50.6592C1223.03 55.8834 1220.03 62.969 1220.03 70.3571C1219.84 74.4057 1220.63 78.4412 1222.34 82.1315C1224.05 85.8219 1226.64 89.0616 1229.88 91.5843C1232.73 94.175 1234.26 95.6514 1234.26 98.2143H1239.96C1239.96 93.0886 1236.8 90.2193 1233.72 87.4614C1231.06 85.4676 1228.94 82.8658 1227.55 79.8838C1226.15 76.9019 1225.53 73.6308 1225.72 70.3571C1225.72 64.4466 1228.12 58.7781 1232.39 54.5988C1236.67 50.4194 1242.46 48.0714 1248.5 48.0714C1254.54 48.0714 1260.33 50.4194 1264.61 54.5988C1268.88 58.7781 1271.28 64.4466 1271.28 70.3571C1271.47 73.6333 1270.84 76.9059 1269.44 79.888C1268.04 82.8701 1265.92 85.4706 1263.25 87.4614C1260.2 90.2471 1257.04 93.0329 1257.04 98.2143H1262.74C1262.74 95.6514 1264.25 94.175 1267.12 91.5564C1270.36 89.0381 1272.94 85.8031 1274.66 82.1176C1276.37 78.4321 1277.16 74.4014 1276.97 70.3571C1276.97 66.6989 1276.24 63.0765 1274.81 59.6967C1273.37 56.3169 1271.28 53.2459 1268.63 50.6592C1265.99 48.0724 1262.85 46.0205 1259.4 44.6205C1255.94 43.2205 1252.24 42.5 1248.5 42.5Z" fill="white"/>
</svg>
