<svg width="1363" height="163" viewBox="0 0 1363 163" fill="none" xmlns="http://www.w3.org/2000/svg">
<path d="M0 15C0 6.71573 6.71573 0 15 0H37V163H15C6.71573 163 0 156.284 0 148V15Z" fill="#424242"/>
<rect width="1097" height="163" transform="translate(37)" fill="#F0F0F0"/>
<path d="M103.406 56.5352C103.406 56.2305 103.359 55.957 103.266 55.7148C103.18 55.4648 103.016 55.2383 102.773 55.0352C102.531 54.8242 102.191 54.6172 101.754 54.4141C101.316 54.2109 100.75 54 100.055 53.7812C99.2812 53.5312 98.5469 53.25 97.8516 52.9375C97.1641 52.625 96.5547 52.2617 96.0234 51.8477C95.5 51.4258 95.0859 50.9375 94.7812 50.3828C94.4844 49.8281 94.3359 49.1836 94.3359 48.4492C94.3359 47.7383 94.4922 47.0938 94.8047 46.5156C95.1172 45.9297 95.5547 45.4297 96.1172 45.0156C96.6797 44.5938 97.3438 44.2695 98.1094 44.043C98.8828 43.8164 99.7305 43.7031 100.652 43.7031C101.91 43.7031 103.008 43.9297 103.945 44.3828C104.883 44.8359 105.609 45.457 106.125 46.2461C106.648 47.0352 106.91 47.9375 106.91 48.9531H103.418C103.418 48.4531 103.312 48.0156 103.102 47.6406C102.898 47.2578 102.586 46.957 102.164 46.7383C101.75 46.5195 101.227 46.4102 100.594 46.4102C99.9844 46.4102 99.4766 46.5039 99.0703 46.6914C98.6641 46.8711 98.3594 47.1172 98.1562 47.4297C97.9531 47.7344 97.8516 48.0781 97.8516 48.4609C97.8516 48.75 97.9219 49.0117 98.0625 49.2461C98.2109 49.4805 98.4297 49.6992 98.7188 49.9023C99.0078 50.1055 99.3633 50.2969 99.7852 50.4766C100.207 50.6562 100.695 50.832 101.25 51.0039C102.18 51.2852 102.996 51.6016 103.699 51.9531C104.41 52.3047 105.004 52.6992 105.48 53.1367C105.957 53.5742 106.316 54.0703 106.559 54.625C106.801 55.1797 106.922 55.8086 106.922 56.5117C106.922 57.2539 106.777 57.918 106.488 58.5039C106.199 59.0898 105.781 59.5859 105.234 59.9922C104.688 60.3984 104.035 60.707 103.277 60.918C102.52 61.1289 101.672 61.2344 100.734 61.2344C99.8906 61.2344 99.0586 61.125 98.2383 60.9062C97.418 60.6797 96.6719 60.3398 96 59.8867C95.3359 59.4336 94.8047 58.8555 94.4062 58.1523C94.0078 57.4492 93.8086 56.6172 93.8086 55.6562H97.3359C97.3359 56.1875 97.418 56.6367 97.582 57.0039C97.7461 57.3711 97.9766 57.668 98.2734 57.8945C98.5781 58.1211 98.9375 58.2852 99.3516 58.3867C99.7734 58.4883 100.234 58.5391 100.734 58.5391C101.344 58.5391 101.844 58.4531 102.234 58.2812C102.633 58.1094 102.926 57.8711 103.113 57.5664C103.309 57.2617 103.406 56.918 103.406 56.5352ZM112.664 48.3203V61H109.277V48.3203H112.664ZM109.066 45.0156C109.066 44.5234 109.238 44.1172 109.582 43.7969C109.926 43.4766 110.387 43.3164 110.965 43.3164C111.535 43.3164 111.992 43.4766 112.336 43.7969C112.688 44.1172 112.863 44.5234 112.863 45.0156C112.863 45.5078 112.688 45.9141 112.336 46.2344C111.992 46.5547 111.535 46.7148 110.965 46.7148C110.387 46.7148 109.926 46.5547 109.582 46.2344C109.238 45.9141 109.066 45.5078 109.066 45.0156ZM118.828 50.9453V61H115.441V48.3203H118.617L118.828 50.9453ZM118.359 54.2148H117.422C117.422 53.332 117.527 52.5195 117.738 51.7773C117.957 51.0273 118.273 50.3789 118.688 49.832C119.109 49.2773 119.629 48.8477 120.246 48.543C120.863 48.2383 121.578 48.0859 122.391 48.0859C122.953 48.0859 123.469 48.1719 123.938 48.3438C124.406 48.5078 124.809 48.7695 125.145 49.1289C125.488 49.4805 125.754 49.9414 125.941 50.5117C126.129 51.0742 126.223 51.75 126.223 52.5391V61H122.848V52.9141C122.848 52.3359 122.77 51.8906 122.613 51.5781C122.457 51.2656 122.234 51.0469 121.945 50.9219C121.664 50.7969 121.324 50.7344 120.926 50.7344C120.488 50.7344 120.105 50.8242 119.777 51.0039C119.457 51.1836 119.191 51.4336 118.98 51.7539C118.77 52.0664 118.613 52.4336 118.512 52.8555C118.41 53.2773 118.359 53.7305 118.359 54.2148ZM125.906 53.8281L124.699 53.9805C124.699 53.1523 124.801 52.3828 125.004 51.6719C125.215 50.9609 125.523 50.3359 125.93 49.7969C126.344 49.2578 126.855 48.8398 127.465 48.543C128.074 48.2383 128.777 48.0859 129.574 48.0859C130.184 48.0859 130.738 48.1758 131.238 48.3555C131.738 48.5273 132.164 48.8047 132.516 49.1875C132.875 49.5625 133.148 50.0547 133.336 50.6641C133.531 51.2734 133.629 52.0195 133.629 52.9023V61H130.242V52.9023C130.242 52.3164 130.164 51.8711 130.008 51.5664C129.859 51.2539 129.641 51.0391 129.352 50.9219C129.07 50.7969 128.734 50.7344 128.344 50.7344C127.938 50.7344 127.582 50.8164 127.277 50.9805C126.973 51.1367 126.719 51.3555 126.516 51.6367C126.312 51.918 126.16 52.2461 126.059 52.6211C125.957 52.9883 125.906 53.3906 125.906 53.8281ZM135.703 54.7891V54.543C135.703 53.6133 135.836 52.7578 136.102 51.9766C136.367 51.1875 136.754 50.5039 137.262 49.9258C137.77 49.3477 138.395 48.8984 139.137 48.5781C139.879 48.25 140.73 48.0859 141.691 48.0859C142.652 48.0859 143.508 48.25 144.258 48.5781C145.008 48.8984 145.637 49.3477 146.145 49.9258C146.66 50.5039 147.051 51.1875 147.316 51.9766C147.582 52.7578 147.715 53.6133 147.715 54.543V54.7891C147.715 55.7109 147.582 56.5664 147.316 57.3555C147.051 58.1367 146.66 58.8203 146.145 59.4062C145.637 59.9844 145.012 60.4336 144.27 60.7539C143.527 61.0742 142.676 61.2344 141.715 61.2344C140.754 61.2344 139.898 61.0742 139.148 60.7539C138.406 60.4336 137.777 59.9844 137.262 59.4062C136.754 58.8203 136.367 58.1367 136.102 57.3555C135.836 56.5664 135.703 55.7109 135.703 54.7891ZM139.078 54.543V54.7891C139.078 55.3203 139.125 55.8164 139.219 56.2773C139.312 56.7383 139.461 57.1445 139.664 57.4961C139.875 57.8398 140.148 58.1094 140.484 58.3047C140.82 58.5 141.23 58.5977 141.715 58.5977C142.184 58.5977 142.586 58.5 142.922 58.3047C143.258 58.1094 143.527 57.8398 143.73 57.4961C143.934 57.1445 144.082 56.7383 144.176 56.2773C144.277 55.8164 144.328 55.3203 144.328 54.7891V54.543C144.328 54.0273 144.277 53.543 144.176 53.0898C144.082 52.6289 143.93 52.2227 143.719 51.8711C143.516 51.5117 143.246 51.2305 142.91 51.0273C142.574 50.8242 142.168 50.7227 141.691 50.7227C141.215 50.7227 140.809 50.8242 140.473 51.0273C140.145 51.2305 139.875 51.5117 139.664 51.8711C139.461 52.2227 139.312 52.6289 139.219 53.0898C139.125 53.543 139.078 54.0273 139.078 54.543ZM153.094 51.0273V61H149.719V48.3203H152.883L153.094 51.0273ZM152.602 54.2148H151.688C151.688 53.2773 151.809 52.4336 152.051 51.6836C152.293 50.9258 152.633 50.2812 153.07 49.75C153.508 49.2109 154.027 48.8008 154.629 48.5195C155.238 48.2305 155.918 48.0859 156.668 48.0859C157.262 48.0859 157.805 48.1719 158.297 48.3438C158.789 48.5156 159.211 48.7891 159.562 49.1641C159.922 49.5391 160.195 50.0352 160.383 50.6523C160.578 51.2695 160.676 52.0234 160.676 52.9141V61H157.277V52.9023C157.277 52.3398 157.199 51.9023 157.043 51.5898C156.887 51.2773 156.656 51.0586 156.352 50.9336C156.055 50.8008 155.688 50.7344 155.25 50.7344C154.797 50.7344 154.402 50.8242 154.066 51.0039C153.738 51.1836 153.465 51.4336 153.246 51.7539C153.035 52.0664 152.875 52.4336 152.766 52.8555C152.656 53.2773 152.602 53.7305 152.602 54.2148ZM178.312 56.5352C178.312 56.2305 178.266 55.957 178.172 55.7148C178.086 55.4648 177.922 55.2383 177.68 55.0352C177.438 54.8242 177.098 54.6172 176.66 54.4141C176.223 54.2109 175.656 54 174.961 53.7812C174.188 53.5312 173.453 53.25 172.758 52.9375C172.07 52.625 171.461 52.2617 170.93 51.8477C170.406 51.4258 169.992 50.9375 169.688 50.3828C169.391 49.8281 169.242 49.1836 169.242 48.4492C169.242 47.7383 169.398 47.0938 169.711 46.5156C170.023 45.9297 170.461 45.4297 171.023 45.0156C171.586 44.5938 172.25 44.2695 173.016 44.043C173.789 43.8164 174.637 43.7031 175.559 43.7031C176.816 43.7031 177.914 43.9297 178.852 44.3828C179.789 44.8359 180.516 45.457 181.031 46.2461C181.555 47.0352 181.816 47.9375 181.816 48.9531H178.324C178.324 48.4531 178.219 48.0156 178.008 47.6406C177.805 47.2578 177.492 46.957 177.07 46.7383C176.656 46.5195 176.133 46.4102 175.5 46.4102C174.891 46.4102 174.383 46.5039 173.977 46.6914C173.57 46.8711 173.266 47.1172 173.062 47.4297C172.859 47.7344 172.758 48.0781 172.758 48.4609C172.758 48.75 172.828 49.0117 172.969 49.2461C173.117 49.4805 173.336 49.6992 173.625 49.9023C173.914 50.1055 174.27 50.2969 174.691 50.4766C175.113 50.6562 175.602 50.832 176.156 51.0039C177.086 51.2852 177.902 51.6016 178.605 51.9531C179.316 52.3047 179.91 52.6992 180.387 53.1367C180.863 53.5742 181.223 54.0703 181.465 54.625C181.707 55.1797 181.828 55.8086 181.828 56.5117C181.828 57.2539 181.684 57.918 181.395 58.5039C181.105 59.0898 180.688 59.5859 180.141 59.9922C179.594 60.3984 178.941 60.707 178.184 60.918C177.426 61.1289 176.578 61.2344 175.641 61.2344C174.797 61.2344 173.965 61.125 173.145 60.9062C172.324 60.6797 171.578 60.3398 170.906 59.8867C170.242 59.4336 169.711 58.8555 169.312 58.1523C168.914 57.4492 168.715 56.6172 168.715 55.6562H172.242C172.242 56.1875 172.324 56.6367 172.488 57.0039C172.652 57.3711 172.883 57.668 173.18 57.8945C173.484 58.1211 173.844 58.2852 174.258 58.3867C174.68 58.4883 175.141 58.5391 175.641 58.5391C176.25 58.5391 176.75 58.4531 177.141 58.2812C177.539 58.1094 177.832 57.8711 178.02 57.5664C178.215 57.2617 178.312 56.918 178.312 56.5352ZM190.852 58.1406V52.4922C190.852 52.0859 190.785 51.7383 190.652 51.4492C190.52 51.1523 190.312 50.9219 190.031 50.7578C189.758 50.5938 189.402 50.5117 188.965 50.5117C188.59 50.5117 188.266 50.5781 187.992 50.7109C187.719 50.8359 187.508 51.0195 187.359 51.2617C187.211 51.4961 187.137 51.7734 187.137 52.0938H183.762C183.762 51.5547 183.887 51.043 184.137 50.5586C184.387 50.0742 184.75 49.6484 185.227 49.2812C185.703 48.9062 186.27 48.6133 186.926 48.4023C187.59 48.1914 188.332 48.0859 189.152 48.0859C190.137 48.0859 191.012 48.25 191.777 48.5781C192.543 48.9062 193.145 49.3984 193.582 50.0547C194.027 50.7109 194.25 51.5312 194.25 52.5156V57.9414C194.25 58.6367 194.293 59.207 194.379 59.6523C194.465 60.0898 194.59 60.4727 194.754 60.8008V61H191.344C191.18 60.6562 191.055 60.2266 190.969 59.7109C190.891 59.1875 190.852 58.6641 190.852 58.1406ZM191.297 53.2773L191.32 55.1875H189.434C188.988 55.1875 188.602 55.2383 188.273 55.3398C187.945 55.4414 187.676 55.5859 187.465 55.7734C187.254 55.9531 187.098 56.1641 186.996 56.4062C186.902 56.6484 186.855 56.9141 186.855 57.2031C186.855 57.4922 186.922 57.7539 187.055 57.9883C187.188 58.2148 187.379 58.3945 187.629 58.5273C187.879 58.6523 188.172 58.7148 188.508 58.7148C189.016 58.7148 189.457 58.6133 189.832 58.4102C190.207 58.207 190.496 57.957 190.699 57.6602C190.91 57.3633 191.02 57.082 191.027 56.8164L191.918 58.2461C191.793 58.5664 191.621 58.8984 191.402 59.2422C191.191 59.5859 190.922 59.9102 190.594 60.2148C190.266 60.5117 189.871 60.7578 189.41 60.9531C188.949 61.1406 188.402 61.2344 187.77 61.2344C186.965 61.2344 186.234 61.0742 185.578 60.7539C184.93 60.4258 184.414 59.9766 184.031 59.4062C183.656 58.8281 183.469 58.1719 183.469 57.4375C183.469 56.7734 183.594 56.1836 183.844 55.668C184.094 55.1523 184.461 54.7188 184.945 54.3672C185.438 54.0078 186.051 53.7383 186.785 53.5586C187.52 53.3711 188.371 53.2773 189.34 53.2773H191.297ZM200.426 59.5703L203.789 48.3203H207.41L202.312 62.9102C202.203 63.2305 202.055 63.5742 201.867 63.9414C201.688 64.3086 201.441 64.6562 201.129 64.9844C200.824 65.3203 200.438 65.5938 199.969 65.8047C199.508 66.0156 198.941 66.1211 198.27 66.1211C197.949 66.1211 197.688 66.1016 197.484 66.0625C197.281 66.0234 197.039 65.9688 196.758 65.8984V63.4258C196.844 63.4258 196.934 63.4258 197.027 63.4258C197.121 63.4336 197.211 63.4375 197.297 63.4375C197.742 63.4375 198.105 63.3867 198.387 63.2852C198.668 63.1836 198.895 63.0273 199.066 62.8164C199.238 62.6133 199.375 62.3477 199.477 62.0195L200.426 59.5703ZM199.02 48.3203L201.773 57.5078L202.254 61.082L199.957 61.3281L195.398 48.3203H199.02ZM215.613 57.4961C215.613 57.2539 215.543 57.0352 215.402 56.8398C215.262 56.6445 215 56.4648 214.617 56.3008C214.242 56.1289 213.699 55.9727 212.988 55.832C212.348 55.6914 211.75 55.5156 211.195 55.3047C210.648 55.0859 210.172 54.8242 209.766 54.5195C209.367 54.2148 209.055 53.8555 208.828 53.4414C208.602 53.0195 208.488 52.5391 208.488 52C208.488 51.4688 208.602 50.9688 208.828 50.5C209.062 50.0312 209.395 49.6172 209.824 49.2578C210.262 48.8906 210.793 48.6055 211.418 48.4023C212.051 48.1914 212.762 48.0859 213.551 48.0859C214.652 48.0859 215.598 48.2617 216.387 48.6133C217.184 48.9648 217.793 49.4492 218.215 50.0664C218.645 50.6758 218.859 51.3711 218.859 52.1523H215.484C215.484 51.8242 215.414 51.5312 215.273 51.2734C215.141 51.0078 214.93 50.8008 214.641 50.6523C214.359 50.4961 213.992 50.418 213.539 50.418C213.164 50.418 212.84 50.4844 212.566 50.6172C212.293 50.7422 212.082 50.9141 211.934 51.1328C211.793 51.3438 211.723 51.5781 211.723 51.8359C211.723 52.0312 211.762 52.207 211.84 52.3633C211.926 52.5117 212.062 52.6484 212.25 52.7734C212.438 52.8984 212.68 53.0156 212.977 53.125C213.281 53.2266 213.656 53.3203 214.102 53.4062C215.016 53.5938 215.832 53.8398 216.551 54.1445C217.27 54.4414 217.84 54.8477 218.262 55.3633C218.684 55.8711 218.895 56.5391 218.895 57.3672C218.895 57.9297 218.77 58.4453 218.52 58.9141C218.27 59.3828 217.91 59.793 217.441 60.1445C216.973 60.4883 216.41 60.7578 215.754 60.9531C215.105 61.1406 214.375 61.2344 213.562 61.2344C212.383 61.2344 211.383 61.0234 210.562 60.6016C209.75 60.1797 209.133 59.6445 208.711 58.9961C208.297 58.3398 208.09 57.668 208.09 56.9805H211.289C211.305 57.4414 211.422 57.8125 211.641 58.0938C211.867 58.375 212.152 58.5781 212.496 58.7031C212.848 58.8281 213.227 58.8906 213.633 58.8906C214.07 58.8906 214.434 58.832 214.723 58.7148C215.012 58.5898 215.23 58.4258 215.379 58.2227C215.535 58.0117 215.613 57.7695 215.613 57.4961Z" fill="#888888"/>
<path d="M113.18 109.93C113.18 109.398 113.102 108.922 112.945 108.5C112.789 108.062 112.5 107.656 112.078 107.281C111.656 106.906 111.047 106.531 110.25 106.156C109.469 105.766 108.438 105.359 107.156 104.938C105.656 104.438 104.211 103.875 102.82 103.25C101.43 102.609 100.188 101.867 99.0938 101.023C98 100.164 97.1328 99.1641 96.4922 98.0234C95.8516 96.8672 95.5312 95.5234 95.5312 93.9922C95.5312 92.5234 95.8594 91.2031 96.5156 90.0312C97.1719 88.8438 98.0859 87.8359 99.2578 87.0078C100.445 86.1641 101.836 85.5234 103.43 85.0859C105.023 84.6328 106.766 84.4062 108.656 84.4062C111.156 84.4062 113.359 84.8438 115.266 85.7188C117.188 86.5781 118.688 87.8047 119.766 89.3984C120.859 90.9766 121.406 92.8438 121.406 95H113.227C113.227 94.1406 113.047 93.3828 112.688 92.7266C112.344 92.0703 111.82 91.5547 111.117 91.1797C110.414 90.8047 109.531 90.6172 108.469 90.6172C107.438 90.6172 106.57 90.7734 105.867 91.0859C105.164 91.3984 104.633 91.8203 104.273 92.3516C103.914 92.8672 103.734 93.4375 103.734 94.0625C103.734 94.5781 103.875 95.0469 104.156 95.4688C104.453 95.875 104.867 96.2578 105.398 96.6172C105.945 96.9766 106.602 97.3203 107.367 97.6484C108.148 97.9766 109.023 98.2969 109.992 98.6094C111.805 99.1875 113.414 99.8359 114.82 100.555C116.242 101.258 117.438 102.062 118.406 102.969C119.391 103.859 120.133 104.875 120.633 106.016C121.148 107.156 121.406 108.445 121.406 109.883C121.406 111.414 121.109 112.773 120.516 113.961C119.922 115.148 119.07 116.156 117.961 116.984C116.852 117.797 115.523 118.414 113.977 118.836C112.43 119.258 110.703 119.469 108.797 119.469C107.047 119.469 105.32 119.25 103.617 118.812C101.93 118.359 100.398 117.672 99.0234 116.75C97.6484 115.812 96.5469 114.617 95.7188 113.164C94.9062 111.695 94.5 109.953 94.5 107.938H102.75C102.75 108.938 102.883 109.781 103.148 110.469C103.414 111.156 103.805 111.711 104.32 112.133C104.836 112.539 105.469 112.836 106.219 113.023C106.969 113.195 107.828 113.281 108.797 113.281C109.844 113.281 110.688 113.133 111.328 112.836C111.969 112.523 112.438 112.117 112.734 111.617C113.031 111.102 113.18 110.539 113.18 109.93ZM133.031 99.0547V119H125.133V93.6406H132.539L133.031 99.0547ZM132.094 105.453L130.242 105.5C130.242 103.562 130.477 101.836 130.945 100.32C131.414 98.7891 132.078 97.4922 132.938 96.4297C133.797 95.3672 134.82 94.5625 136.008 94.0156C137.211 93.4531 138.547 93.1719 140.016 93.1719C141.188 93.1719 142.258 93.3438 143.227 93.6875C144.211 94.0312 145.055 94.5859 145.758 95.3516C146.477 96.1172 147.023 97.1328 147.398 98.3984C147.789 99.6484 147.984 101.195 147.984 103.039V119H140.039V103.016C140.039 102 139.898 101.227 139.617 100.695C139.336 100.148 138.93 99.7734 138.398 99.5703C137.867 99.3672 137.219 99.2656 136.453 99.2656C135.641 99.2656 134.953 99.4219 134.391 99.7344C133.828 100.047 133.375 100.484 133.031 101.047C132.703 101.594 132.461 102.242 132.305 102.992C132.164 103.742 132.094 104.562 132.094 105.453ZM165.539 112.625V102.172C165.539 101.453 165.438 100.836 165.234 100.32C165.031 99.8047 164.711 99.4062 164.273 99.125C163.836 98.8281 163.25 98.6797 162.516 98.6797C161.922 98.6797 161.414 98.7812 160.992 98.9844C160.57 99.1875 160.25 99.4922 160.031 99.8984C159.812 100.305 159.703 100.82 159.703 101.445H151.805C151.805 100.273 152.062 99.1875 152.578 98.1875C153.109 97.1719 153.859 96.2891 154.828 95.5391C155.812 94.7891 156.984 94.2109 158.344 93.8047C159.719 93.3828 161.25 93.1719 162.938 93.1719C164.953 93.1719 166.75 93.5078 168.328 94.1797C169.922 94.8516 171.18 95.8594 172.102 97.2031C173.023 98.5312 173.484 100.203 173.484 102.219V112.602C173.484 114.258 173.578 115.516 173.766 116.375C173.953 117.219 174.219 117.961 174.562 118.602V119H166.641C166.266 118.219 165.984 117.266 165.797 116.141C165.625 115 165.539 113.828 165.539 112.625ZM166.5 103.508L166.547 107.727H163.055C162.32 107.727 161.695 107.828 161.18 108.031C160.68 108.234 160.273 108.516 159.961 108.875C159.664 109.219 159.445 109.609 159.305 110.047C159.18 110.484 159.117 110.945 159.117 111.43C159.117 111.898 159.227 112.32 159.445 112.695C159.68 113.055 159.992 113.336 160.383 113.539C160.773 113.742 161.211 113.844 161.695 113.844C162.57 113.844 163.312 113.68 163.922 113.352C164.547 113.008 165.023 112.594 165.352 112.109C165.68 111.625 165.844 111.172 165.844 110.75L167.578 113.984C167.266 114.609 166.906 115.242 166.5 115.883C166.109 116.523 165.617 117.117 165.023 117.664C164.445 118.195 163.734 118.633 162.891 118.977C162.047 119.305 161.023 119.469 159.82 119.469C158.258 119.469 156.82 119.148 155.508 118.508C154.211 117.867 153.172 116.977 152.391 115.836C151.609 114.68 151.219 113.352 151.219 111.852C151.219 110.539 151.453 109.367 151.922 108.336C152.406 107.305 153.133 106.43 154.102 105.711C155.07 104.992 156.305 104.445 157.805 104.07C159.305 103.695 161.07 103.508 163.102 103.508H166.5ZM185.836 98.5156V128.75H177.938V93.6406H185.297L185.836 98.5156ZM201.398 106.016V106.508C201.398 108.352 201.188 110.062 200.766 111.641C200.344 113.219 199.719 114.594 198.891 115.766C198.062 116.938 197.031 117.852 195.797 118.508C194.578 119.148 193.164 119.469 191.555 119.469C190.039 119.469 188.734 119.133 187.641 118.461C186.547 117.789 185.633 116.859 184.898 115.672C184.164 114.484 183.57 113.125 183.117 111.594C182.664 110.062 182.305 108.445 182.039 106.742V106.109C182.305 104.281 182.664 102.586 183.117 101.023C183.57 99.4453 184.164 98.0703 184.898 96.8984C185.633 95.7266 186.539 94.8125 187.617 94.1562C188.711 93.5 190.016 93.1719 191.531 93.1719C193.141 93.1719 194.555 93.4766 195.773 94.0859C197.008 94.6953 198.039 95.5703 198.867 96.7109C199.711 97.8359 200.344 99.1875 200.766 100.766C201.188 102.344 201.398 104.094 201.398 106.016ZM193.5 106.508V106.016C193.5 105.031 193.43 104.133 193.289 103.32C193.148 102.492 192.922 101.773 192.609 101.164C192.312 100.555 191.914 100.086 191.414 99.7578C190.914 99.4297 190.297 99.2656 189.562 99.2656C188.719 99.2656 188.008 99.3984 187.43 99.6641C186.867 99.9141 186.414 100.305 186.07 100.836C185.742 101.352 185.508 102 185.367 102.781C185.242 103.547 185.188 104.445 185.203 105.477V107.398C185.172 108.586 185.289 109.633 185.555 110.539C185.82 111.43 186.281 112.125 186.938 112.625C187.594 113.125 188.484 113.375 189.609 113.375C190.359 113.375 190.984 113.203 191.484 112.859C191.984 112.5 192.383 112.008 192.68 111.383C192.977 110.742 193.188 110.008 193.312 109.18C193.438 108.352 193.5 107.461 193.5 106.508ZM218.203 111.875C218.203 111.438 218.055 111.062 217.758 110.75C217.477 110.422 216.977 110.125 216.258 109.859C215.539 109.578 214.531 109.297 213.234 109.016C212 108.75 210.836 108.398 209.742 107.961C208.664 107.523 207.719 106.992 206.906 106.367C206.094 105.742 205.453 105 204.984 104.141C204.531 103.281 204.305 102.297 204.305 101.188C204.305 100.109 204.531 99.0938 204.984 98.1406C205.453 97.1719 206.133 96.3203 207.023 95.5859C207.93 94.8359 209.031 94.25 210.328 93.8281C211.625 93.3906 213.102 93.1719 214.758 93.1719C217.039 93.1719 219.008 93.5234 220.664 94.2266C222.32 94.9141 223.594 95.8828 224.484 97.1328C225.391 98.3672 225.844 99.7969 225.844 101.422H217.945C217.945 100.781 217.836 100.234 217.617 99.7812C217.414 99.3281 217.078 98.9844 216.609 98.75C216.141 98.5 215.516 98.375 214.734 98.375C214.188 98.375 213.688 98.4766 213.234 98.6797C212.797 98.8828 212.445 99.1641 212.18 99.5234C211.914 99.8828 211.781 100.305 211.781 100.789C211.781 101.133 211.859 101.445 212.016 101.727C212.188 101.992 212.445 102.242 212.789 102.477C213.133 102.695 213.57 102.898 214.102 103.086C214.633 103.258 215.273 103.414 216.023 103.555C217.727 103.867 219.32 104.312 220.805 104.891C222.289 105.469 223.492 106.289 224.414 107.352C225.352 108.414 225.82 109.844 225.82 111.641C225.82 112.766 225.562 113.805 225.047 114.758C224.531 115.695 223.789 116.523 222.82 117.242C221.852 117.945 220.688 118.492 219.328 118.883C217.969 119.273 216.438 119.469 214.734 119.469C212.312 119.469 210.266 119.039 208.594 118.18C206.922 117.305 205.656 116.211 204.797 114.898C203.953 113.57 203.531 112.227 203.531 110.867H210.891C210.922 111.648 211.109 112.289 211.453 112.789C211.812 113.289 212.289 113.656 212.883 113.891C213.477 114.125 214.164 114.242 214.945 114.242C215.664 114.242 216.258 114.141 216.727 113.938C217.211 113.734 217.578 113.461 217.828 113.117C218.078 112.758 218.203 112.344 218.203 111.875ZM237.258 83V119H229.359V83H237.258ZM236.32 105.453L234.469 105.5C234.469 103.719 234.688 102.078 235.125 100.578C235.562 99.0781 236.188 97.7734 237 96.6641C237.812 95.5547 238.789 94.6953 239.93 94.0859C241.07 93.4766 242.336 93.1719 243.727 93.1719C244.977 93.1719 246.117 93.3516 247.148 93.7109C248.195 94.0703 249.094 94.6484 249.844 95.4453C250.609 96.2422 251.195 97.2812 251.602 98.5625C252.023 99.8438 252.234 101.406 252.234 103.25V119H244.289V103.203C244.289 102.172 244.141 101.375 243.844 100.812C243.562 100.234 243.156 99.8359 242.625 99.6172C242.094 99.3828 241.445 99.2656 240.68 99.2656C239.758 99.2656 239.008 99.4219 238.43 99.7344C237.852 100.047 237.406 100.484 237.094 101.047C236.797 101.594 236.594 102.242 236.484 102.992C236.375 103.742 236.32 104.562 236.32 105.453ZM255.633 106.578V106.086C255.633 104.227 255.898 102.516 256.43 100.953C256.961 99.375 257.742 98.0078 258.773 96.8516C259.805 95.6953 261.078 94.7969 262.594 94.1562C264.109 93.5 265.859 93.1719 267.844 93.1719C269.844 93.1719 271.602 93.5 273.117 94.1562C274.648 94.7969 275.93 95.6953 276.961 96.8516C277.992 98.0078 278.773 99.375 279.305 100.953C279.836 102.516 280.102 104.227 280.102 106.086V106.578C280.102 108.422 279.836 110.133 279.305 111.711C278.773 113.273 277.992 114.641 276.961 115.812C275.93 116.969 274.656 117.867 273.141 118.508C271.625 119.148 269.875 119.469 267.891 119.469C265.906 119.469 264.148 119.148 262.617 118.508C261.086 117.867 259.805 116.969 258.773 115.812C257.742 114.641 256.961 113.273 256.43 111.711C255.898 110.133 255.633 108.422 255.633 106.578ZM263.531 106.086V106.578C263.531 107.531 263.602 108.422 263.742 109.25C263.883 110.078 264.117 110.805 264.445 111.43C264.773 112.039 265.219 112.516 265.781 112.859C266.344 113.203 267.047 113.375 267.891 113.375C268.719 113.375 269.406 113.203 269.953 112.859C270.516 112.516 270.961 112.039 271.289 111.43C271.617 110.805 271.852 110.078 271.992 109.25C272.133 108.422 272.203 107.531 272.203 106.578V106.086C272.203 105.164 272.133 104.297 271.992 103.484C271.852 102.656 271.617 101.93 271.289 101.305C270.961 100.664 270.516 100.164 269.953 99.8047C269.391 99.4453 268.688 99.2656 267.844 99.2656C267.016 99.2656 266.32 99.4453 265.758 99.8047C265.211 100.164 264.773 100.664 264.445 101.305C264.117 101.93 263.883 102.656 263.742 103.484C263.602 104.297 263.531 105.164 263.531 106.086ZM296.977 93.6406V99.125H281.695V93.6406H296.977ZM284.906 87.3359H292.805V110.727C292.805 111.398 292.883 111.922 293.039 112.297C293.195 112.656 293.461 112.914 293.836 113.07C294.227 113.211 294.742 113.281 295.383 113.281C295.836 113.281 296.211 113.273 296.508 113.258C296.805 113.227 297.086 113.188 297.352 113.141V118.789C296.68 119.008 295.977 119.172 295.242 119.281C294.508 119.406 293.727 119.469 292.898 119.469C291.211 119.469 289.766 119.203 288.562 118.672C287.375 118.141 286.469 117.305 285.844 116.164C285.219 115.023 284.906 113.539 284.906 111.711V87.3359ZM313.406 111.875C313.406 111.438 313.258 111.062 312.961 110.75C312.68 110.422 312.18 110.125 311.461 109.859C310.742 109.578 309.734 109.297 308.438 109.016C307.203 108.75 306.039 108.398 304.945 107.961C303.867 107.523 302.922 106.992 302.109 106.367C301.297 105.742 300.656 105 300.188 104.141C299.734 103.281 299.508 102.297 299.508 101.188C299.508 100.109 299.734 99.0938 300.188 98.1406C300.656 97.1719 301.336 96.3203 302.227 95.5859C303.133 94.8359 304.234 94.25 305.531 93.8281C306.828 93.3906 308.305 93.1719 309.961 93.1719C312.242 93.1719 314.211 93.5234 315.867 94.2266C317.523 94.9141 318.797 95.8828 319.688 97.1328C320.594 98.3672 321.047 99.7969 321.047 101.422H313.148C313.148 100.781 313.039 100.234 312.82 99.7812C312.617 99.3281 312.281 98.9844 311.812 98.75C311.344 98.5 310.719 98.375 309.938 98.375C309.391 98.375 308.891 98.4766 308.438 98.6797C308 98.8828 307.648 99.1641 307.383 99.5234C307.117 99.8828 306.984 100.305 306.984 100.789C306.984 101.133 307.062 101.445 307.219 101.727C307.391 101.992 307.648 102.242 307.992 102.477C308.336 102.695 308.773 102.898 309.305 103.086C309.836 103.258 310.477 103.414 311.227 103.555C312.93 103.867 314.523 104.312 316.008 104.891C317.492 105.469 318.695 106.289 319.617 107.352C320.555 108.414 321.023 109.844 321.023 111.641C321.023 112.766 320.766 113.805 320.25 114.758C319.734 115.695 318.992 116.523 318.023 117.242C317.055 117.945 315.891 118.492 314.531 118.883C313.172 119.273 311.641 119.469 309.938 119.469C307.516 119.469 305.469 119.039 303.797 118.18C302.125 117.305 300.859 116.211 300 114.898C299.156 113.57 298.734 112.227 298.734 110.867H306.094C306.125 111.648 306.312 112.289 306.656 112.789C307.016 113.289 307.492 113.656 308.086 113.891C308.68 114.125 309.367 114.242 310.148 114.242C310.867 114.242 311.461 114.141 311.93 113.938C312.414 113.734 312.781 113.461 313.031 113.117C313.281 112.758 313.406 112.344 313.406 111.875Z" fill="black"/>
<path d="M1134 0H1348C1356.28 0 1363 6.71573 1363 15V148C1363 156.284 1356.28 163 1348 163H1134V0Z" fill="#FFC000"/>
<path fill-rule="evenodd" clip-rule="evenodd" d="M1202.75 46.5018C1202.75 45.3973 1203.65 44.5018 1204.75 44.5018H1292.25C1293.35 44.5018 1294.25 45.3973 1294.25 46.5018V116.498C1294.25 117.603 1293.35 118.498 1292.25 118.498H1204.75C1203.65 118.498 1202.75 117.603 1202.75 116.498V46.5018ZM1206.75 48.5018V52.9963H1290.25V48.5018H1206.75ZM1290.25 56.9963H1235.19V114.498H1290.25V56.9963ZM1231.19 114.498V56.9963H1206.75V114.498H1231.19Z" fill="white"/>
<path fill-rule="evenodd" clip-rule="evenodd" d="M1209.72 62.3022C1209.72 61.1976 1210.62 60.3022 1211.72 60.3022H1225.72C1226.83 60.3022 1227.72 61.1976 1227.72 62.3022V81.6974C1227.72 82.802 1226.83 83.6974 1225.72 83.6974H1211.72C1210.62 83.6974 1209.72 82.802 1209.72 81.6974V62.3022ZM1213.72 64.3022V79.6974H1223.72V64.3022H1213.72ZM1239.33 63.1982C1239.33 62.0936 1240.22 61.1982 1241.33 61.1982H1284.25C1285.36 61.1982 1286.25 62.0936 1286.25 63.1982V109.407C1286.25 110.511 1285.36 111.407 1284.25 111.407H1241.33C1240.22 111.407 1239.33 110.511 1239.33 109.407V63.1982ZM1243.33 65.1982V107.407H1282.25V65.1982H1243.33ZM1209.56 93.4381C1209.56 92.3336 1210.46 91.4381 1211.56 91.4381H1220.48C1221.59 91.4381 1222.48 92.3336 1222.48 93.4381C1222.48 94.5427 1221.59 95.4381 1220.48 95.4381H1211.56C1210.46 95.4381 1209.56 94.5427 1209.56 93.4381ZM1209.56 100.438C1209.56 99.3335 1210.46 98.4381 1211.56 98.4381H1226.1C1227.21 98.4381 1228.1 99.3335 1228.1 100.438C1228.1 101.543 1227.21 102.438 1226.1 102.438H1211.56C1210.46 102.438 1209.56 101.543 1209.56 100.438ZM1209.56 107.438C1209.56 106.334 1210.46 105.438 1211.56 105.438H1220.48C1221.59 105.438 1222.48 106.334 1222.48 107.438C1222.48 108.543 1221.59 109.438 1220.48 109.438H1211.56C1210.46 109.438 1209.56 108.543 1209.56 107.438Z" fill="white"/>
</svg>
